<?xml version="1.0" standalone="no"?>
<!DOCTYPE svg PUBLIC "-//W3C//DTD SVG 20010904//EN"
 "http://www.w3.org/TR/2001/REC-SVG-20010904/DTD/svg10.dtd">
<svg version="1.0" xmlns="http://www.w3.org/2000/svg"
 width="2048.000000pt" height="2048.000000pt" viewBox="0 0 2048.000000 2048.000000"
 preserveAspectRatio="xMidYMid meet">

<g transform="translate(0.000000,2048.000000) scale(0.100000,-0.100000)"
fill="#000000" stroke="none">
<path d="M5299 12150 c-84 -44 -132 -145 -110 -227 27 -100 103 -157 207 -155
61 0 64 -1 90 -36 16 -20 88 -112 161 -204 153 -191 143 -186 308 -173 72 5
93 4 98 -7 50 -124 97 -241 97 -244 0 -2 -119 -4 -264 -4 l-263 0 -97 110 -97
110 -234 0 -234 0 -15 29 c-8 15 -31 42 -50 59 -131 115 -339 18 -339 -158 0
-204 256 -280 378 -113 l30 42 200 0 200 1 90 -106 90 -106 331 2 331 1 26
-68 c15 -38 27 -72 27 -76 0 -4 -216 -7 -479 -7 l-479 0 -23 36 c-35 58 -101
94 -171 94 -75 0 -114 -17 -160 -68 -72 -79 -73 -194 -2 -272 50 -56 94 -73
170 -68 76 5 136 41 167 101 l19 37 511 -2 510 -3 49 -115 c26 -63 48 -118 48
-122 0 -4 -367 -8 -815 -8 l-814 0 -15 28 c-19 36 -64 78 -99 91 -16 6 -54 11
-85 11 -71 0 -124 -29 -167 -88 -27 -39 -30 -52 -30 -116 0 -62 4 -78 27 -113
31 -48 113 -93 168 -93 78 0 159 46 187 106 l17 34 843 0 843 0 10 -22 c5 -13
25 -60 44 -105 l34 -83 -723 0 -724 0 -98 -110 -98 -109 -155 -1 -155 0 -44
51 c-50 59 -91 79 -156 79 -193 0 -283 -232 -139 -359 51 -45 89 -56 164 -49
62 6 122 44 152 98 l23 40 170 0 c94 0 179 3 191 6 11 3 62 52 114 110 l93
104 720 -2 719 -3 58 -142 59 -143 -543 0 -543 0 -33 41 c-87 109 -256 104
-335 -9 -24 -35 -30 -55 -33 -110 -4 -62 -2 -70 30 -117 62 -93 171 -124 264
-77 42 22 88 69 107 109 l10 23 565 -2 565 -3 48 -124 c27 -69 49 -126 49
-128 0 -2 -179 -3 -398 -3 -304 0 -402 -3 -414 -12 -8 -7 -48 -86 -88 -175
l-73 -163 -41 -11 c-76 -20 -146 -116 -146 -199 0 -89 61 -171 146 -196 137
-39 267 55 267 195 0 63 -28 128 -66 158 l-24 17 53 121 53 120 398 3 398 2
54 -135 53 -135 213 0 c161 0 214 3 218 13 3 6 175 435 383 952 207 517 449
1117 536 1334 87 216 158 395 158 397 0 2 -126 4 -279 4 l-279 0 -52 -142
c-88 -240 -525 -1407 -662 -1768 -9 -24 -10 -24 -28 18 -10 23 -75 189 -144
369 -68 181 -150 393 -181 473 -31 80 -123 318 -205 530 -81 212 -160 415
-175 453 l-27 67 -280 0 -280 0 6 -25 c6 -25 6 -25 -62 -25 l-68 0 -139 177
c-77 97 -139 184 -138 192 1 9 7 38 14 64 24 90 -23 191 -105 228 -54 24 -140
24 -187 -1z m146 -135 c14 -13 25 -36 25 -50 0 -35 -42 -75 -78 -75 -65 0
-102 72 -62 123 29 36 81 37 115 2z m-634 -714 c34 -34 38 -72 9 -101 -29 -29
-66 -35 -95 -16 -52 34 -55 89 -8 126 35 27 59 25 94 -9z m344 -506 c49 -49
16 -125 -55 -125 -30 0 -43 6 -59 26 -62 79 43 170 114 99z m-505 -385 c45
-45 9 -130 -55 -130 -43 0 -75 32 -75 75 0 46 29 75 75 75 22 0 43 -8 55 -20z
m-191 -567 c55 -47 24 -133 -48 -133 -44 0 -68 21 -77 67 -13 63 73 108 125
66z m1048 -225 c40 -37 29 -102 -20 -123 -77 -32 -143 61 -85 122 28 30 74 30
105 1z m480 -870 c33 -31 32 -90 -3 -117 -35 -28 -69 -26 -99 4 -35 34 -34 86
1 114 34 27 72 27 101 -1z"/>
<path d="M14639 11580 c-486 -44 -795 -257 -883 -611 -36 -147 -14 -374 49
-498 36 -71 144 -183 230 -236 155 -97 296 -146 722 -250 291 -71 391 -102
475 -147 79 -42 142 -112 162 -179 20 -66 20 -89 0 -161 -30 -104 -112 -172
-259 -213 -81 -22 -345 -32 -457 -16 -235 34 -473 121 -672 246 -49 30 -90 54
-91 53 -1 -2 -57 -95 -124 -207 -116 -193 -122 -205 -105 -218 54 -39 215
-129 292 -163 272 -118 551 -173 872 -174 651 0 1033 274 1066 764 16 228 -66
444 -215 568 -158 132 -345 207 -771 311 -425 104 -551 151 -622 229 -109 120
-63 303 95 383 171 88 491 89 802 4 113 -30 279 -95 343 -132 24 -13 45 -23
47 -21 2 1 52 93 112 203 l110 200 -51 32 c-67 43 -248 119 -365 155 -132 39
-283 66 -441 78 -149 11 -194 11 -321 0z"/>
<path d="M8710 10191 l0 -1351 463 0 c645 0 814 15 1035 89 414 139 712 485
814 948 18 84 22 131 22 328 1 252 -7 313 -66 490 -128 382 -434 681 -808 788
-174 50 -190 51 -842 55 l-618 3 0 -1350z m1137 884 c300 -49 528 -238 623
-518 66 -195 75 -428 24 -637 -53 -214 -210 -414 -402 -514 -166 -85 -292
-106 -639 -106 l-233 0 0 895 0 895 268 0 c189 0 294 -4 359 -15z"/>
<path d="M11360 10190 l0 -1352 708 5 c765 4 795 6 965 62 260 85 427 254 492
500 26 95 31 256 11 355 -43 218 -211 418 -408 485 -32 10 -58 22 -58 25 0 3
28 21 62 40 280 159 380 538 226 859 -79 165 -234 285 -443 343 -79 22 -92 23
-817 26 l-738 3 0 -1351z m1407 861 c106 -57 152 -138 153 -268 0 -140 -49
-228 -159 -283 -87 -43 -153 -50 -533 -50 l-358 0 0 320 0 321 418 -3 417 -3
62 -34z m10 -1048 c154 -51 239 -164 250 -329 12 -172 -73 -299 -232 -351 -56
-18 -303 -28 -695 -28 l-225 0 -3 368 -2 369 422 -4 c396 -4 427 -5 485 -25z"/>
<path d="M3879 11053 c-172 -88 -145 -335 44 -385 84 -22 183 21 229 98 l20
34 197 0 c194 0 198 0 219 23 28 29 28 67 2 95 -20 21 -28 22 -220 22 l-199 0
-15 29 c-22 41 -80 88 -123 100 -60 17 -95 13 -154 -16z m154 -134 c50 -61
-19 -150 -93 -119 -57 24 -62 111 -7 138 30 16 79 6 100 -19z"/>
<path d="M4805 9612 c-136 -65 -165 -230 -59 -336 106 -106 298 -61 345 81 28
87 -8 189 -87 243 -49 33 -142 39 -199 12z m140 -137 c14 -13 25 -33 25 -44 0
-62 -61 -107 -109 -80 -41 23 -57 60 -42 96 22 55 86 69 126 28z"/>
<path d="M5316 9168 c-13 -18 -16 -56 -16 -205 0 -175 -1 -182 -21 -188 -28
-9 -87 -63 -103 -94 -53 -104 -8 -230 101 -285 18 -9 56 -16 84 -16 73 0 130
30 168 87 63 95 48 200 -40 276 l-49 42 0 133 0 132 153 0 c174 0 187 5 187
73 0 63 -15 67 -247 67 -197 0 -202 -1 -217 -22z m95 -527 c17 -13 23 -29 23
-56 0 -45 -31 -75 -76 -75 -36 0 -78 40 -78 75 0 61 82 96 131 56z"/>
</g>
</svg>
